<mxfile host="app.diagrams.net" modified="2024-03-23T00:27:00.285Z" agent="Mozilla/5.0 (Windows NT 10.0; Win64; x64) AppleWebKit/537.36 (KHTML, like Gecko) Chrome/121.0.0.0 Safari/537.36 OPR/107.0.0.0" etag="f1FyrITvzq0QJ0b3SdEL" version="24.0.8" type="github">
  <diagram name="Page-1" id="WxHSlVrrccDbhy-CtQRo">
    <mxGraphModel dx="1707" dy="477" grid="1" gridSize="10" guides="1" tooltips="1" connect="1" arrows="1" fold="1" page="1" pageScale="1" pageWidth="827" pageHeight="1169" math="0" shadow="0">
      <root>
        <mxCell id="0" />
        <mxCell id="1" parent="0" />
        <mxCell id="YspUFZVMCCBwBX6qZ45Q-14" style="edgeStyle=orthogonalEdgeStyle;rounded=0;orthogonalLoop=1;jettySize=auto;html=1;exitX=0.5;exitY=1;exitDx=0;exitDy=0;entryX=0.5;entryY=0;entryDx=0;entryDy=0;" edge="1" parent="1" source="YspUFZVMCCBwBX6qZ45Q-1" target="YspUFZVMCCBwBX6qZ45Q-3">
          <mxGeometry relative="1" as="geometry" />
        </mxCell>
        <mxCell id="YspUFZVMCCBwBX6qZ45Q-1" value="Inicio" style="ellipse;whiteSpace=wrap;html=1;" vertex="1" parent="1">
          <mxGeometry x="340" width="120" height="80" as="geometry" />
        </mxCell>
        <mxCell id="YspUFZVMCCBwBX6qZ45Q-11" value="Não" style="edgeStyle=orthogonalEdgeStyle;rounded=0;orthogonalLoop=1;jettySize=auto;html=1;exitX=1;exitY=0.5;exitDx=0;exitDy=0;entryX=1;entryY=0.5;entryDx=0;entryDy=0;" edge="1" parent="1" source="YspUFZVMCCBwBX6qZ45Q-2" target="YspUFZVMCCBwBX6qZ45Q-4">
          <mxGeometry relative="1" as="geometry" />
        </mxCell>
        <mxCell id="YspUFZVMCCBwBX6qZ45Q-13" value="sim" style="edgeStyle=orthogonalEdgeStyle;rounded=0;orthogonalLoop=1;jettySize=auto;html=1;exitX=0.5;exitY=1;exitDx=0;exitDy=0;entryX=0.5;entryY=0;entryDx=0;entryDy=0;" edge="1" parent="1" source="YspUFZVMCCBwBX6qZ45Q-2" target="YspUFZVMCCBwBX6qZ45Q-12">
          <mxGeometry relative="1" as="geometry" />
        </mxCell>
        <mxCell id="YspUFZVMCCBwBX6qZ45Q-2" value="Sair?" style="rhombus;whiteSpace=wrap;html=1;" vertex="1" parent="1">
          <mxGeometry x="769" y="440" width="130" height="80" as="geometry" />
        </mxCell>
        <mxCell id="YspUFZVMCCBwBX6qZ45Q-15" style="edgeStyle=orthogonalEdgeStyle;rounded=0;orthogonalLoop=1;jettySize=auto;html=1;exitX=0.5;exitY=1;exitDx=0;exitDy=0;entryX=0.5;entryY=0;entryDx=0;entryDy=0;" edge="1" parent="1" source="YspUFZVMCCBwBX6qZ45Q-3" target="YspUFZVMCCBwBX6qZ45Q-4">
          <mxGeometry relative="1" as="geometry" />
        </mxCell>
        <mxCell id="YspUFZVMCCBwBX6qZ45Q-3" value="Mostrar Título" style="rounded=0;whiteSpace=wrap;html=1;" vertex="1" parent="1">
          <mxGeometry x="340" y="120" width="120" height="60" as="geometry" />
        </mxCell>
        <mxCell id="YspUFZVMCCBwBX6qZ45Q-32" style="edgeStyle=orthogonalEdgeStyle;rounded=0;orthogonalLoop=1;jettySize=auto;html=1;entryX=0.5;entryY=0;entryDx=0;entryDy=0;" edge="1" parent="1" source="YspUFZVMCCBwBX6qZ45Q-4" target="YspUFZVMCCBwBX6qZ45Q-29">
          <mxGeometry relative="1" as="geometry" />
        </mxCell>
        <mxCell id="YspUFZVMCCBwBX6qZ45Q-4" value="&lt;span style=&quot;background-color: initial;&quot;&gt;Mostrar Opções:&amp;nbsp;&lt;/span&gt;&lt;div&gt;&lt;br&gt;&lt;span style=&quot;background-color: initial;&quot;&gt;New Game&lt;/span&gt;&lt;br&gt;&lt;span style=&quot;background-color: initial;&quot;&gt;Load Game&lt;/span&gt;&lt;br&gt;&lt;span style=&quot;background-color: initial;&quot;&gt;Credits&lt;/span&gt;&lt;br&gt;&lt;span style=&quot;background-color: initial;&quot;&gt;Exit&lt;/span&gt;&lt;br&gt;&lt;/div&gt;" style="rounded=0;whiteSpace=wrap;html=1;align=center;" vertex="1" parent="1">
          <mxGeometry x="337.5" y="220" width="125" height="100" as="geometry" />
        </mxCell>
        <mxCell id="YspUFZVMCCBwBX6qZ45Q-10" value="Não" style="edgeStyle=orthogonalEdgeStyle;rounded=0;orthogonalLoop=1;jettySize=auto;html=1;exitX=1;exitY=0.5;exitDx=0;exitDy=0;entryX=1;entryY=0.75;entryDx=0;entryDy=0;" edge="1" parent="1" source="YspUFZVMCCBwBX6qZ45Q-5" target="YspUFZVMCCBwBX6qZ45Q-4">
          <mxGeometry relative="1" as="geometry" />
        </mxCell>
        <mxCell id="YspUFZVMCCBwBX6qZ45Q-18" style="edgeStyle=orthogonalEdgeStyle;rounded=0;orthogonalLoop=1;jettySize=auto;html=1;exitX=0.5;exitY=1;exitDx=0;exitDy=0;entryX=0.5;entryY=0;entryDx=0;entryDy=0;" edge="1" parent="1" source="YspUFZVMCCBwBX6qZ45Q-5" target="YspUFZVMCCBwBX6qZ45Q-16">
          <mxGeometry relative="1" as="geometry" />
        </mxCell>
        <mxCell id="YspUFZVMCCBwBX6qZ45Q-19" value="Sim" style="edgeLabel;html=1;align=center;verticalAlign=middle;resizable=0;points=[];" vertex="1" connectable="0" parent="YspUFZVMCCBwBX6qZ45Q-18">
          <mxGeometry x="-0.0123" y="-1" relative="1" as="geometry">
            <mxPoint x="-1" y="-1" as="offset" />
          </mxGeometry>
        </mxCell>
        <mxCell id="YspUFZVMCCBwBX6qZ45Q-5" value="Mostrar Créditos?" style="rhombus;whiteSpace=wrap;html=1;" vertex="1" parent="1">
          <mxGeometry x="540" y="440" width="130" height="80" as="geometry" />
        </mxCell>
        <mxCell id="YspUFZVMCCBwBX6qZ45Q-9" value="Não" style="edgeStyle=orthogonalEdgeStyle;rounded=0;orthogonalLoop=1;jettySize=auto;html=1;exitX=0;exitY=0.5;exitDx=0;exitDy=0;entryX=0;entryY=0.75;entryDx=0;entryDy=0;" edge="1" parent="1" source="YspUFZVMCCBwBX6qZ45Q-6" target="YspUFZVMCCBwBX6qZ45Q-4">
          <mxGeometry relative="1" as="geometry" />
        </mxCell>
        <mxCell id="YspUFZVMCCBwBX6qZ45Q-6" value="Carregar Jogo?" style="rhombus;whiteSpace=wrap;html=1;" vertex="1" parent="1">
          <mxGeometry x="207.5" y="440" width="130" height="80" as="geometry" />
        </mxCell>
        <mxCell id="YspUFZVMCCBwBX6qZ45Q-8" value="Não" style="edgeStyle=orthogonalEdgeStyle;rounded=0;orthogonalLoop=1;jettySize=auto;html=1;exitX=0;exitY=0.5;exitDx=0;exitDy=0;entryX=0;entryY=0.5;entryDx=0;entryDy=0;" edge="1" parent="1" source="YspUFZVMCCBwBX6qZ45Q-7" target="YspUFZVMCCBwBX6qZ45Q-4">
          <mxGeometry relative="1" as="geometry">
            <mxPoint x="310" y="300" as="targetPoint" />
          </mxGeometry>
        </mxCell>
        <mxCell id="YspUFZVMCCBwBX6qZ45Q-7" value="Novo Jogo?" style="rhombus;whiteSpace=wrap;html=1;" vertex="1" parent="1">
          <mxGeometry y="440" width="130" height="80" as="geometry" />
        </mxCell>
        <mxCell id="YspUFZVMCCBwBX6qZ45Q-12" value="Fim" style="ellipse;whiteSpace=wrap;html=1;" vertex="1" parent="1">
          <mxGeometry x="774" y="560" width="120" height="80" as="geometry" />
        </mxCell>
        <mxCell id="YspUFZVMCCBwBX6qZ45Q-21" style="edgeStyle=orthogonalEdgeStyle;rounded=0;orthogonalLoop=1;jettySize=auto;html=1;exitX=0.5;exitY=1;exitDx=0;exitDy=0;entryX=0.5;entryY=0;entryDx=0;entryDy=0;" edge="1" parent="1" source="YspUFZVMCCBwBX6qZ45Q-16" target="YspUFZVMCCBwBX6qZ45Q-17">
          <mxGeometry relative="1" as="geometry" />
        </mxCell>
        <mxCell id="YspUFZVMCCBwBX6qZ45Q-16" value="Mostrar Créditos" style="rounded=0;whiteSpace=wrap;html=1;" vertex="1" parent="1">
          <mxGeometry x="545" y="560" width="120" height="60" as="geometry" />
        </mxCell>
        <mxCell id="YspUFZVMCCBwBX6qZ45Q-22" value="Não" style="edgeStyle=orthogonalEdgeStyle;rounded=0;orthogonalLoop=1;jettySize=auto;html=1;exitX=1;exitY=0.5;exitDx=0;exitDy=0;" edge="1" parent="1" source="YspUFZVMCCBwBX6qZ45Q-17">
          <mxGeometry x="0.3502" relative="1" as="geometry">
            <mxPoint x="662" y="590" as="targetPoint" />
            <Array as="points">
              <mxPoint x="682" y="705" />
              <mxPoint x="682" y="590" />
            </Array>
            <mxPoint as="offset" />
          </mxGeometry>
        </mxCell>
        <mxCell id="YspUFZVMCCBwBX6qZ45Q-30" value="sim" style="edgeStyle=orthogonalEdgeStyle;rounded=0;orthogonalLoop=1;jettySize=auto;html=1;entryX=1;entryY=1;entryDx=0;entryDy=0;" edge="1" parent="1" source="YspUFZVMCCBwBX6qZ45Q-17" target="YspUFZVMCCBwBX6qZ45Q-4">
          <mxGeometry relative="1" as="geometry">
            <Array as="points">
              <mxPoint x="520" y="705" />
              <mxPoint x="520" y="320" />
            </Array>
          </mxGeometry>
        </mxCell>
        <mxCell id="YspUFZVMCCBwBX6qZ45Q-17" value="Voltar ao Menu?" style="rhombus;whiteSpace=wrap;html=1;" vertex="1" parent="1">
          <mxGeometry x="540" y="664.5" width="130" height="80" as="geometry" />
        </mxCell>
        <mxCell id="YspUFZVMCCBwBX6qZ45Q-24" value="Mostrar todos os progressos salvos." style="rounded=0;whiteSpace=wrap;html=1;" vertex="1" parent="1">
          <mxGeometry x="212.5" y="684.5" width="120" height="60" as="geometry" />
        </mxCell>
        <mxCell id="YspUFZVMCCBwBX6qZ45Q-27" style="edgeStyle=orthogonalEdgeStyle;rounded=0;orthogonalLoop=1;jettySize=auto;html=1;entryX=0.5;entryY=0;entryDx=0;entryDy=0;" edge="1" parent="1" source="YspUFZVMCCBwBX6qZ45Q-25" target="YspUFZVMCCBwBX6qZ45Q-24">
          <mxGeometry relative="1" as="geometry" />
        </mxCell>
        <mxCell id="YspUFZVMCCBwBX6qZ45Q-25" value="O jogo apresenta progresso salvo?" style="rhombus;whiteSpace=wrap;html=1;" vertex="1" parent="1">
          <mxGeometry x="199" y="560" width="147" height="80" as="geometry" />
        </mxCell>
        <mxCell id="YspUFZVMCCBwBX6qZ45Q-28" value="" style="rounded=0;whiteSpace=wrap;html=1;" vertex="1" parent="1">
          <mxGeometry x="212.5" y="900" width="120" height="60" as="geometry" />
        </mxCell>
        <mxCell id="YspUFZVMCCBwBX6qZ45Q-31" style="edgeStyle=orthogonalEdgeStyle;rounded=0;orthogonalLoop=1;jettySize=auto;html=1;exitX=0;exitY=0.5;exitDx=0;exitDy=0;entryX=0.5;entryY=0;entryDx=0;entryDy=0;" edge="1" parent="1" source="YspUFZVMCCBwBX6qZ45Q-29" target="YspUFZVMCCBwBX6qZ45Q-7">
          <mxGeometry relative="1" as="geometry">
            <Array as="points">
              <mxPoint x="65" y="390" />
            </Array>
          </mxGeometry>
        </mxCell>
        <mxCell id="YspUFZVMCCBwBX6qZ45Q-33" style="edgeStyle=orthogonalEdgeStyle;rounded=0;orthogonalLoop=1;jettySize=auto;html=1;exitX=0;exitY=0.75;exitDx=0;exitDy=0;entryX=0.5;entryY=0;entryDx=0;entryDy=0;" edge="1" parent="1" source="YspUFZVMCCBwBX6qZ45Q-29" target="YspUFZVMCCBwBX6qZ45Q-6">
          <mxGeometry relative="1" as="geometry">
            <Array as="points">
              <mxPoint x="335" y="410" />
              <mxPoint x="273" y="410" />
            </Array>
          </mxGeometry>
        </mxCell>
        <mxCell id="YspUFZVMCCBwBX6qZ45Q-35" style="edgeStyle=orthogonalEdgeStyle;rounded=0;orthogonalLoop=1;jettySize=auto;html=1;entryX=0.5;entryY=0;entryDx=0;entryDy=0;exitX=1;exitY=1;exitDx=0;exitDy=0;" edge="1" parent="1" source="YspUFZVMCCBwBX6qZ45Q-29" target="YspUFZVMCCBwBX6qZ45Q-5">
          <mxGeometry relative="1" as="geometry" />
        </mxCell>
        <mxCell id="YspUFZVMCCBwBX6qZ45Q-36" style="edgeStyle=orthogonalEdgeStyle;rounded=0;orthogonalLoop=1;jettySize=auto;html=1;exitX=1;exitY=0.5;exitDx=0;exitDy=0;entryX=0.5;entryY=0;entryDx=0;entryDy=0;" edge="1" parent="1" source="YspUFZVMCCBwBX6qZ45Q-29" target="YspUFZVMCCBwBX6qZ45Q-2">
          <mxGeometry relative="1" as="geometry" />
        </mxCell>
        <mxCell id="YspUFZVMCCBwBX6qZ45Q-29" value="Selecionar Opção" style="shape=parallelogram;perimeter=parallelogramPerimeter;whiteSpace=wrap;html=1;fixedSize=1;" vertex="1" parent="1">
          <mxGeometry x="330" y="360" width="140" height="60" as="geometry" />
        </mxCell>
        <mxCell id="YspUFZVMCCBwBX6qZ45Q-34" value="Selecionar Progresso" style="shape=parallelogram;perimeter=parallelogramPerimeter;whiteSpace=wrap;html=1;fixedSize=1;" vertex="1" parent="1">
          <mxGeometry x="193.75" y="790" width="157.5" height="60" as="geometry" />
        </mxCell>
      </root>
    </mxGraphModel>
  </diagram>
</mxfile>
